# xmcd
#
# Track frame offsets: 
#        150
#        17008
#        31820
#        51663
#        75355
#        90001
#        109160
#        127339
#        144754
#        160480
#
# Disc length: 2465 seconds
#
# Revision: 0
# Processed by: cddbd v1.5.2PL0 Copyright (c) Steve Scherf et al.
# Submitted via: ExactAudioCopy v1.0b3
#
DISCID=76099f0a
DTITLE=No Justice - America's Son
DYEAR=2012
DGENRE=Rock
TTITLE0=Never Gonna Be Enough
TTITLE1=Life's Too Short
TTITLE2=Songs On the Radio
TTITLE3=Red Dress
TTITLE4=Shot In the Dark
TTITLE5=Run Away With Me
TTITLE6=America's Son
TTITLE7=Give You a Ring
TTITLE8=Let's Not Say Goodbye Again
TTITLE9=Don't Walk Away
EXTD=
EXTT0=
EXTT1=
EXTT2=
EXTT3=
EXTT4=
EXTT5=
EXTT6=
EXTT7=
EXTT8=
EXTT9=
PLAYORDER=
